<svg id="Layer_1" data-name="Layer 1" xmlns="http://www.w3.org/2000/svg" viewBox="0 0 15 9.9"><defs><style>.cls-1{fill:#ffcb9a;}</style></defs><title>logo-brackets-beige</title><g id="CodeCampLogo"><polygon class="cls-1" points="11.69 3.28 11.69 4.37 13.91 6.59 11.69 8.81 11.69 9.9 15 6.59 11.69 3.28"/><polygon class="cls-1" points="3.31 8.81 1.09 6.59 3.31 4.37 3.31 3.28 0 6.59 3.31 9.9 3.31 8.81"/><path class="cls-1" d="M958.47,1639.24s-3.35-.56-2.93-3.57,4-2.64,3.08-6.31c0,0,4,2.53,2.31,5.4,0,0,1.26,0,1.06-2,0,0,3.39,5.56-2.08,6.5a1.42,1.42,0,0,0,.78-1.22c0-1.05-1.37-1.06-1.73-1.89a2.13,2.13,0,0,1,.53-2.24S955.47,1636.27,958.47,1639.24Z" transform="translate(-951.77 -1629.36)"/></g></svg>